<?xml version="1.0" encoding="UTF-8" standalone="no"?>
<!DOCTYPE svg PUBLIC "-//W3C//DTD SVG 1.1//EN" "http://www.w3.org/Graphics/SVG/1.1/DTD/svg11.dtd">
<svg width="100%" height="100%" viewBox="0 0 634 109" version="1.1" xmlns="http://www.w3.org/2000/svg" xmlns:xlink="http://www.w3.org/1999/xlink" xml:space="preserve" xmlns:serif="http://www.serif.com/" style="fill-rule:evenodd;clip-rule:evenodd;stroke-linejoin:round;stroke-miterlimit:1.41421;">
    <g transform="matrix(1,0,0,1,-196.228,-321.251)">
        <path d="M196.228,427.845L196.228,324.063L219.22,324.063L248.751,374.337L277.861,324.063L301.275,324.063L301.275,427.845L281.728,427.845L281.728,351.134L255.783,397.68L241.79,397.68L215.775,351.415L215.775,427.845L196.228,427.845Z" style="fill:rgb(40,40,40);fill-rule:nonzero;"/>
        <path d="M322.706,341.571L322.706,324.626L341.831,324.626L341.831,341.571L322.706,341.571ZM322.706,427.845L322.706,352.329L341.831,352.329L341.831,427.845L322.706,427.845Z" style="fill:rgb(40,40,40);fill-rule:nonzero;"/>
        <path d="M407.84,374.759C407.84,368.243 403.411,364.985 394.551,364.985C390.755,364.985 387.356,365.981 384.356,367.973C381.356,369.966 379.856,372.696 379.856,376.165L379.856,427.845L360.731,427.845L360.731,352.329L379.856,352.329L379.856,359.009C386.278,353.384 393.778,350.571 402.356,350.571C410.934,350.571 417.18,352.774 421.094,357.18C425.008,361.587 426.965,367.095 426.965,373.704L426.965,427.845L407.84,427.845L407.84,374.759Z" style="fill:rgb(40,40,40);fill-rule:nonzero;"/>
        <path d="M445.725,341.571L445.725,324.626L464.85,324.626L464.85,341.571L445.725,341.571ZM445.725,427.845L445.725,352.329L464.85,352.329L464.85,427.845L445.725,427.845Z" style="fill:rgb(40,40,40);fill-rule:nonzero;"/>
        <path d="M513.562,429.462C498.937,429.462 489.492,426.18 485.226,419.618C482.555,415.587 481.219,410.665 481.219,404.852L481.219,374.618C481.219,367.071 483.961,361.2 489.445,357.005C494.93,352.809 502.734,350.712 512.859,350.712C522.984,350.712 530.613,352.716 535.746,356.723C540.879,360.731 543.445,368.055 543.445,378.696L525.445,380.102C525.445,373.305 524.625,368.923 522.984,366.954C522,365.735 520.781,364.938 519.328,364.563C517.922,364.235 515.484,364.071 512.015,364.071C504.234,364.071 500.344,367.61 500.344,374.688L500.344,405.204C500.344,409.141 501.363,411.93 503.402,413.571C505.441,415.212 508.465,416.032 512.472,416.032C516.48,416.032 519.305,415.669 520.945,414.942C522.586,414.216 523.758,412.833 524.461,410.794C525.164,408.755 525.515,405.532 525.515,401.126L543.375,401.126C543.281,406.657 542.765,411.157 541.828,414.626C540.89,418.001 539.25,420.86 536.906,423.204C532.687,427.329 524.906,429.415 513.562,429.462Z" style="fill:rgb(40,40,40);fill-rule:nonzero;"/>
        <path d="M583.79,428.688C575.119,428.688 568.697,426.72 564.525,422.782C560.353,418.845 558.267,412.259 558.267,403.024L558.267,321.321L577.392,321.321L577.392,402.743C577.392,406.962 578.376,409.973 580.345,411.778C582.314,413.583 585.83,414.485 590.892,414.485L593.283,414.485L591.806,428.688L583.79,428.688Z" style="fill:rgb(40,40,40);fill-rule:nonzero;"/>
        <path d="M634.401,429.462C612.558,429.462 601.636,421.305 601.636,404.993L601.636,375.251C601.636,367.516 604.507,361.493 610.249,357.18C615.991,352.868 624.03,350.712 634.366,350.712C644.702,350.712 652.753,352.88 658.519,357.216C664.284,361.552 667.167,367.563 667.167,375.251L667.167,404.993C667.167,417.134 661.401,424.727 649.87,427.774C645.558,428.899 640.401,429.462 634.401,429.462ZM634.401,416.173C643.495,416.173 648.042,412.727 648.042,405.837L648.042,374.407C648.042,370.704 646.894,368.055 644.597,366.462C642.3,364.868 638.901,364.071 634.401,364.071C625.308,364.071 620.761,367.516 620.761,374.407L620.761,405.837C620.761,409.54 621.897,412.188 624.171,413.782C626.444,415.376 629.855,416.173 634.401,416.173Z" style="fill:rgb(40,40,40);fill-rule:nonzero;"/>
        <path d="M730.434,419.548C728.934,422.641 726.028,425.067 721.715,426.825C717.403,428.583 712.622,429.462 707.372,429.462C699.825,429.462 693.872,427.376 689.512,423.204C685.153,419.032 682.973,413.759 682.973,407.384L682.973,352.329L702.098,352.329L702.098,404.29C702.098,407.899 703.376,410.595 705.93,412.376C708.485,414.157 711.614,415.048 715.317,415.048C719.02,415.048 722.372,414.052 725.372,412.059C728.372,410.067 729.872,407.126 729.872,403.235L729.872,352.329L748.997,352.329L748.997,427.845L730.997,427.845L730.434,419.548Z" style="fill:rgb(40,40,40);fill-rule:nonzero;"/>
        <path d="M784.209,405.345C784.209,409.095 785.311,411.813 787.514,413.501C789.717,415.188 793.256,416.032 798.131,416.032C803.006,416.032 807.131,415.024 810.506,413.009L810.506,366.673C806.85,364.938 802.725,364.071 798.131,364.071C793.537,364.071 790.069,364.88 787.725,366.497C785.381,368.114 784.209,370.774 784.209,374.477L784.209,405.345ZM795.108,429.462C785.076,429.462 777.565,427.341 772.572,423.098C767.58,418.856 765.084,412.845 765.084,405.063L765.084,374.899C765.084,367.54 767.674,361.669 772.854,357.286C778.033,352.903 785.897,350.712 796.444,350.712C800.944,350.712 805.631,351.602 810.506,353.384L810.506,321.251L829.631,321.251L829.631,427.845L816.694,427.845L814.655,423.415C808.889,427.446 802.373,429.462 795.108,429.462Z" style="fill:rgb(40,40,40);fill-rule:nonzero;"/>
    </g>
</svg>
